<?xml version="1.0" encoding="UTF-8" standalone="no"?>
<!-- Created with Inkscape (http://www.inkscape.org/) -->

<svg
   width="210mm"
   height="297mm"
   viewBox="0 0 210 297"
   version="1.1"
   id="svg5"
   xml:space="preserve"
   inkscape:export-filename="bitmap.svg"
   inkscape:export-xdpi="96"
   inkscape:export-ydpi="96"
   inkscape:version="1.2.2 (b0a8486, 2022-12-01)"
   sodipodi:docname="dibujo.svg"
   xmlns:inkscape="http://www.inkscape.org/namespaces/inkscape"
   xmlns:sodipodi="http://sodipodi.sourceforge.net/DTD/sodipodi-0.dtd"
   xmlns="http://www.w3.org/2000/svg"
   xmlns:svg="http://www.w3.org/2000/svg"><sodipodi:namedview
     id="namedview7"
     pagecolor="#ffffff"
     bordercolor="#000000"
     borderopacity="0.25"
     inkscape:showpageshadow="2"
     inkscape:pageopacity="0.0"
     inkscape:pagecheckerboard="0"
     inkscape:deskcolor="#d1d1d1"
     inkscape:document-units="mm"
     showgrid="false"
     inkscape:zoom="0.78127806"
     inkscape:cx="404.46547"
     inkscape:cy="580.45915"
     inkscape:window-width="1805"
     inkscape:window-height="1027"
     inkscape:window-x="0"
     inkscape:window-y="25"
     inkscape:window-maximized="0"
     inkscape:current-layer="layer1" /><defs
     id="defs2"><clipPath
       id="clip0"><rect
         width="200"
         height="200"
         fill="white"
         id="rect148" /></clipPath></defs><g
     inkscape:label="Capa 1"
     inkscape:groupmode="layer"
     id="layer1"><g
       style="fill:none"
       id="g165"
       transform="matrix(1.0096232,0,0,0.95543852,3.5125901,23.493204)"><g
         clip-path="url(#clip0)"
         id="g146"><rect
           width="200"
           height="200"
           fill="#aea6bf"
           id="rect136"
           x="0"
           y="0" /><circle
           cx="191"
           cy="120"
           r="150"
           fill="#d1c8e6"
           id="circle138" /><circle
           cx="45.5"
           cy="50.5"
           fill="#e8ddff"
           id="circle140"
           r="87.5" /><path
           d="m 129.832,105.55 32.4,-44.4 h -53.4 V 55.6 h 60.3 v 5.55 l -23.85,32.55 c 5.3,1 10.05,3.1 14.25,6.3 4.3,3.2 7.65,7.2 10.05,12 2.5,4.8 3.75,9.95 3.75,15.45 0,6.2 -1.55,11.95 -4.65,17.25 -3.1,5.3 -7.3,9.5 -12.6,12.6 -5.2,3.1 -10.9,4.65 -17.1,4.65 -6.2,0 -11.95,-1.55 -17.25,-4.65 -5.2,-3.1 -9.35,-7.3 -12.45,-12.6 -3.1,-5.3 -4.65,-11.05 -4.65,-17.25 h 5.4 c 0,5.2 1.3,10.05 3.9,14.55 2.6,4.4 6.1,7.9 10.5,10.5 4.5,2.6 9.35,3.9 14.55,3.9 5.2,0 10,-1.3 14.4,-3.9 4.5,-2.6 8.05,-6.1 10.65,-10.5 2.6,-4.5 3.9,-9.35 3.9,-14.55 0,-4.9 -1.2,-9.45 -3.6,-13.65 -2.3,-4.2 -5.5,-7.65 -9.6,-10.35 -4,-2.7 -8.4,-4.25 -13.2,-4.65 l -7.2,9.9 z"
           fill="#000000"
           fill-opacity="0.6"
           id="path142" /><path
           d="m 103.132,55.6 v 5.55 H 63.6824 V 160 h -5.4 V 61.15 h -39.45 V 55.6 Z"
           fill="#000000"
           fill-opacity="0.6"
           id="path144" /></g></g><rect
       style="fill:#000000;stroke-width:0.264583"
       id="rect377"
       width="87.711517"
       height="6.4344339"
       x="23.0285"
       y="76.197266"
       ry="0" /><path
       style="fill:#e8ddff;fill-opacity:1;stroke-width:0.339796"
       d="M 62.312428,129.89574 V 82.675173 H 42.815605 c -16.445708,0 -19.572534,-0.07622 -19.980616,-0.48706 -0.721504,-0.72638 -0.678665,-5.50167 0.05189,-5.783903 0.294624,-0.113821 20.18211,-0.206947 44.194415,-0.206947 h 43.658726 v 3.238955 3.238955 H 89.183204 67.626388 l 0.187923,47.220567 0.187923,47.22056 h -2.844906 -2.8449 z"
       id="path1555" /><rect
       style="fill:#e8ddff;fill-opacity:1;stroke-width:0.264583"
       id="rect1747"
       width="57.90992"
       height="77.55188"
       x="15.239452"
       y="70.101479" /><rect
       style="fill:#e8ddff;fill-opacity:1;stroke-width:0.264583"
       id="rect1818"
       width="1.0159636"
       height="18.625998"
       x="62.312428"
       y="157.81299" /><rect
       style="fill:#e8ddff;fill-opacity:1;stroke-width:0.264583"
       id="rect1820"
       width="3.3865454"
       height="2.0319271"
       x="65.698975"
       y="177.79362" /><rect
       style="fill:#e8ddff;fill-opacity:1;stroke-width:0.264583"
       id="rect1822"
       width="1.3546181"
       height="9.143671"
       x="69.085518"
       y="166.61801" /><rect
       style="fill:#d1c8e6;fill-opacity:1;stroke-width:0.264583"
       id="rect1824"
       width="11.852911"
       height="29.462948"
       x="60.957813"
       y="154.42645"
       ry="0" /><rect
       style="fill:#d1c8e6;fill-opacity:1;stroke-width:0.264583"
       id="rect2015"
       width="45.041046"
       height="108.36945"
       x="138.50969"
       y="75.181297" /><rect
       style="fill:#d1c8e6;fill-opacity:1;stroke-width:0.264583"
       id="rect2017"
       width="41.993156"
       height="35.897377"
       x="105.32155"
       y="143.58951" /><rect
       style="fill:#d1c8e6;fill-opacity:1;stroke-width:0.264583"
       id="rect2019"
       width="8.8050165"
       height="9.820981"
       x="133.76852"
       y="119.88369" /><rect
       style="fill:#e8ddff;fill-opacity:1;stroke-width:0.264583"
       id="rect2021"
       width="26.076395"
       height="6.4344354"
       x="112.09464"
       y="75.519951" /><text
       xml:space="preserve"
       style="font-weight:bold;font-size:25.4px;font-family:Helvetica;-inkscape-font-specification:'Helvetica Bold';fill:#0000ff;fill-opacity:1;stroke-width:0.264583"
       x="20.657925"
       y="100.58039"
       id="text2077"><tspan
         sodipodi:role="line"
         id="tspan2075"
         style="fill:#0000ff;stroke-width:0.264583"
         x="20.657925"
         y="100.58039">SURFCLUBB</tspan></text></g></svg>
