<?xml version="1.0" encoding="UTF-8" standalone="no"?>
<!-- Created with Inkscape (http://www.inkscape.org/) -->

<svg
   width="119.0625mm"
   height="119.06251mm"
   viewBox="0 0 119.0625 119.06251"
   version="1.1"
   id="svg5"
   xml:space="preserve"
   xmlns:inkscape="http://www.inkscape.org/namespaces/inkscape"
   xmlns:sodipodi="http://sodipodi.sourceforge.net/DTD/sodipodi-0.dtd"
   xmlns="http://www.w3.org/2000/svg"
   xmlns:svg="http://www.w3.org/2000/svg"><sodipodi:namedview
     id="namedview7"
     pagecolor="#ffffff"
     bordercolor="#000000"
     borderopacity="0.25"
     inkscape:showpageshadow="2"
     inkscape:pageopacity="0.0"
     inkscape:pagecheckerboard="0"
     inkscape:deskcolor="#d1d1d1"
     inkscape:document-units="mm"
     showgrid="false" /><defs
     id="defs2" /><g
     inkscape:label="Capa 1"
     inkscape:groupmode="layer"
     id="layer1"
     transform="translate(-53.579351,-69.157461)"><g
       inkscape:label="Image"
       id="g1295"
       transform="matrix(0.26458333,0,0,0.26458333,53.257552,68.312296)"
       inkscape:export-filename="g1295.svg"
       inkscape:export-xdpi="40.959999"
       inkscape:export-ydpi="40.959999"><path
         style="fill:#0000ff;stroke-width:0.987521"
         d="m 216.68839,452.30544 c 0,-0.50206 -1.22521,-1.52289 -2.7227,-2.26852 -14.9729,-7.4553 -60.53851,-34.57399 -67.07768,-39.92173 -0.54452,-0.44532 -3.21774,-2.32435 -5.94045,-4.17559 -2.72271,-1.85123 -5.3959,-3.72825 -5.94045,-4.17116 -0.54454,-0.44288 -4.3316,-3.32339 -8.41566,-6.40108 -17.61197,-13.2722 -38.81641,-32.71852 -51.839224,-47.54112 -6.876823,-7.8272 -17.527387,-22.06612 -22.470833,-30.04164 -4.143655,-6.68518 -16.875879,-33.15833 -16.262724,-33.81388 0.167097,-0.17866 3.572648,2.4221 7.567884,5.77946 8.98516,7.55064 24.597259,18.64751 37.694373,26.79263 6.103793,3.79596 13.20432,9.38526 18.469955,14.53893 14.818309,14.50319 35.685599,32.06989 54.273219,45.68884 14.40111,10.55153 47.4942,31.54749 62.16927,39.44338 2.7227,1.46495 6.50976,3.58556 8.41564,4.71249 6.43377,3.80418 49.98833,25.39076 51.23646,25.39391 0.68067,0.002 1.23758,0.40029 1.23758,0.88574 0,0.96752 -12.55176,3.40706 -25.716,4.99817 -10.47852,1.26647 -34.67866,1.33708 -34.67866,0.10112 z m -19.80151,-0.77883 c -6.84043,-0.77271 -23.45866,-4.3855 -33.6626,-7.31822 -23.04128,-6.62233 -52.70727,-20.94901 -63.435851,-30.63524 -1.050055,-0.94804 -2.381023,-1.72371 -2.957705,-1.72371 -0.576672,0 -0.82328,-0.36254 -0.54801,-0.80563 0.595357,-0.95834 -3.982149,-6.08917 -5.432512,-6.08917 -0.554639,0 -0.733082,-0.44324 -0.396539,-0.98498 0.336544,-0.54173 0.135805,-0.98497 -0.44611,-0.98497 -2.347773,0 -31.657013,-30.31658 -42.419881,-43.87781 -8.507464,-10.71943 -24.954232,-36.42641 -24.954232,-39.0045 0,-0.52613 -0.440436,-0.68577 -0.978748,-0.3548 -0.581348,0.35745 -0.714028,-0.0845 -0.32678,-1.08843 0.47734,-1.23749 0.300731,-1.47424 -0.65935,-0.88394 -0.89671,0.55135 -1.075761,0.4271 -0.566311,-0.39296 0.409763,-0.65958 0.06491,-1.94697 -0.766242,-2.86087 -3.85059,-4.23374 -11.3738724,-28.2252 -14.5574057,-46.42303 -6.7383844,-38.5182 -3.93152817,-75.43196 8.5422777,-112.34165 5.294735,-15.66701 16.013349,-37.70189 20.790683,-42.74066 3.080636,-3.24921 3.819591,-4.6792 3.490262,-6.75419 -0.06449,-0.4063 0.328291,-0.73873 0.87283,-0.73873 0.544541,0 0.990074,-0.64283 0.990074,-1.42851 0,-0.78568 0.779687,-1.8803 1.732637,-2.43249 0.95295,-0.55218 1.287102,-1.02729 0.742562,-1.05581 -0.544549,-0.0285 0.123756,-0.966926 1.485105,-2.085376 1.361361,-1.118421 1.806894,-1.688348 0.990084,-1.266477 -1.28576,0.664059 -1.300044,0.540118 -0.106431,-0.923298 0.758273,-0.929685 1.562865,-1.507112 1.787976,-1.283158 0.225111,0.223964 0.551146,15.193929 0.724525,33.266619 0.328185,34.21032 0.79225,39.76339 3.244714,38.82715 1.17376,-0.44809 1.305946,0.37556 0.7591,4.72987 -0.537681,4.28124 -0.28002,5.99332 1.3706,9.10708 l 2.032769,3.83465 0.06187,-3.4474 c 0.05579,-3.10964 0.387092,-2.67537 3.381296,4.43237 8.350295,19.82227 18.678872,37.39915 32.822666,55.85666 l 3.554128,4.63812 -10.755611,5.36633 c -14.740203,7.35437 -16.903041,7.84159 -26.562746,5.98377 -10.744295,-2.0664 -16.927695,-2.86269 -22.338435,-2.8767 l -4.578148,-0.0117 -0.596721,-6.89893 c -0.328197,-3.79445 -2.200916,-12.43944 -4.161599,-19.21112 -2.801602,-9.67601 -8.262355,-35.61368 -8.346636,-39.64513 -0.0095,-0.40631 -0.415239,-0.73873 -0.903884,-0.73873 -1.399395,0 -3.071868,11.61463 -3.071868,21.33276 0,16.61465 3.83054,44.11222 6.930051,49.74747 0.619334,1.12601 0.450506,2.01238 -0.538897,2.82929 -2.103712,1.73692 -1.825758,2.7405 2.068447,7.46836 1.93006,2.34325 4.347509,6.68446 5.372095,9.64713 4.877158,14.10261 20.570122,39.88037 35.729726,58.69075 9.797859,12.15741 32.161105,34.65418 45.486805,45.75838 5.17265,4.31032 10.03274,8.44922 10.80016,9.19757 0.76743,0.74834 3.88617,3.20288 6.93054,5.45456 3.04436,2.25168 5.75795,4.35041 6.03023,4.66385 0.77651,0.89388 26.26096,18.71961 36.13779,25.27746 8.58525,5.70029 30.50141,19.01537 36.63282,22.25614 l 2.97023,1.56992 -3.46526,-0.11819 c -1.9059,-0.065 -5.02465,-0.29434 -6.93054,-0.50962 z M 27.605421,203.3737 c -2.980194,-14.71966 -3.141649,-16.62199 -2.84484,-33.51567 0.173085,-9.85062 0.05244,-18.17121 -0.268243,-18.49018 -0.618221,-0.61501 -3.191691,5.66592 -4.533609,11.06492 -1.142814,4.59795 0.229861,23.68415 2.495102,34.69276 2.899561,14.09121 6.08258,24.07061 7.293328,22.86609 0.696976,-0.69338 0.02191,-5.93117 -2.141738,-16.61792 z M 294.33187,442.50835 c 0.26392,-0.42482 -10.97179,-6.47977 -24.96826,-13.45542 -13.99644,-6.97568 -31.68559,-16.18149 -39.30917,-20.4574 -7.62359,-4.27592 -16.28336,-9.09993 -19.24395,-10.72005 -7.15872,-3.91745 -37.4217,-22.68138 -45.56808,-28.25354 -3.56042,-2.43536 -8.47837,-5.75833 -10.92881,-7.38442 -6.81001,-4.51902 -9.86126,-7.2197 -9.10332,-8.05731 0.37822,-0.41799 0.14994,-0.4529 -0.50729,-0.0776 -0.97889,0.55894 -13.16115,-7.68838 -13.16115,-8.91002 0,-0.39747 1.75213,0.35513 18.81145,8.08008 52.86799,23.94024 116.28482,42.6216 170.29313,50.16508 10.68003,1.49171 17.09896,3.54418 28.4105,9.08434 1.73994,0.85221 3.87938,1.27617 4.75427,0.94219 6.02471,-2.29998 -14.14893,10.51717 -25.77861,16.37824 -11.66537,5.87903 -34.91218,14.61598 -33.70071,12.66585 z m 65.42256,-36.24643 C 259.92566,400.05929 134.93637,355.70937 58.341133,299.31154 41.100793,286.61731 19.663209,267.37096 19.663209,264.58706 c 0,-1.14747 8.34563,-6.65115 12.894927,-8.5038 0.855025,-0.3482 7.771056,0.40958 15.368954,1.68397 7.597895,1.27438 15.454523,2.33493 17.459167,2.35677 2.729947,0.0296 9.911767,-3.06544 28.6122,-12.33122 13.732063,-6.80403 29.244973,-14.16227 34.473113,-16.35163 5.22818,-2.18937 14.62941,-6.31888 20.89165,-9.17668 6.26223,-2.85781 15.39567,-6.82315 20.29656,-8.81185 4.90088,-1.98868 18.48967,-8.25207 30.19733,-13.91864 15.69394,-7.59593 24.46167,-11.19839 33.37133,-13.71152 6.64657,-1.87478 13.62788,-4.05017 15.51401,-4.83419 7.41051,-3.08033 6.53336,-7.55787 -3.88165,-19.81422 -4.1431,-4.87561 -9.38357,-11.69759 -11.64547,-15.15994 -3.78134,-5.78823 -4.16593,-6.10553 -4.77562,-3.93988 -0.38298,1.36034 -0.70478,1.67167 -0.76177,0.73697 -0.0542,-0.89008 -0.76699,-1.87344 -1.58381,-2.18529 -0.81681,-0.31182 -1.48761,-1.1349 -1.49063,-1.82907 -0.003,-0.69417 -0.46952,-2.92427 -1.03662,-4.95577 -1.09278,-3.91459 -2.91818,-5.01215 -2.91818,-1.75462 0,2.26444 -1.5968,1.87932 -6.82118,-1.64505 -3.87869,-2.6166 -5.51308,-2.88999 -4.70168,-0.78648 0.66909,1.73467 -0.47927,1.94787 -2.05392,0.38133 -1.54374,-1.53579 -3.2545,-0.2078 -3.2545,2.52636 0,1.26441 -0.62602,2.5379 -1.39115,2.83 -1.0351,0.39515 -1.6492,-0.92628 -2.39935,-5.16302 -0.55451,-3.13173 -1.71067,-7.36668 -2.56925,-9.41096 -1.30331,-3.10319 -1.80202,-3.51793 -3.02048,-2.51193 -1.21074,0.99965 -1.82042,0.59629 -3.57805,-2.36736 -1.16528,-1.96478 -2.84753,-3.95677 -3.73839,-4.42666 -2.1165,-1.11637 -20.16572,-3.62738 -35.77738,-4.97732 -6.80678,-0.5886 -24.39636,-3.10773 -39.08798,-5.59808 l -26.712023,-4.527908 -4.244393,2.240045 c -2.334414,1.232025 -7.132921,4.873203 -10.663359,8.091533 -3.734744,3.40458 -6.418976,5.23557 -6.418976,4.37859 0,-0.8101 1.336611,-4.43657 2.970231,-8.05886 4.319593,-9.57793 4.141883,-10.313236 -4.06727,-16.829437 l -7.037512,-5.586161 4.443738,-4.42083 c 4.420508,-4.397721 4.463766,-4.414508 8.275105,-3.211638 2.107247,0.665056 7.246975,2.719619 11.421621,4.565696 l 7.590273,3.356505 39.460205,0.893431 c 32.22593,0.729638 40.90502,0.64383 47.34106,-0.468054 8.55698,-1.478288 9.79417,-2.400367 10.86911,-8.100681 1.0264,-5.443003 4.06537,-10.665497 7.89894,-13.574438 6.88024,-5.22075 25.16675,-8.842798 32.49571,-6.436491 1.95702,0.642541 6.27601,3.580802 9.59776,6.529464 3.32176,2.948665 6.45427,5.361208 6.96114,5.361208 0.50686,0 0.66513,0.664856 0.35168,1.477459 -0.39224,1.016904 0.0622,1.477459 1.45775,1.477459 1.11521,0 2.303,0.443237 2.63955,0.984971 0.33654,0.541734 0.14008,0.984973 -0.4366,0.984973 -2.07564,0 -0.96599,2.061654 3.70392,6.881631 2.61384,2.697833 4.31583,5.049941 3.78219,5.226905 -0.57556,0.190867 -0.6345,1.099079 -0.14488,2.232627 0.45397,1.050982 1.00874,3.010966 1.23282,4.355509 0.57751,3.464963 0.78697,3.525902 5.99363,1.743934 10.6804,-3.655358 19.00032,-3.086607 30.12423,2.05932 3.43121,1.587285 10.2484,3.873823 15.14928,5.081164 4.90087,1.207361 13.5888,4.300524 19.30649,6.873704 5.71768,2.57317 14.18283,5.90852 18.81144,7.41185 9.75807,3.16935 18.81175,7.47113 20.83936,9.90166 1.77395,2.12647 1.76787,12.54091 -0.01,14.67036 -3.00867,3.60655 -10.65299,4.82145 -31.22656,4.96282 -16.71538,0.11487 -19.73053,0.35644 -19.34593,1.54999 0.25062,0.77766 0.5542,9.61382 0.67469,19.63592 0.25106,20.88655 0.53501,23.75092 3.95452,39.89137 5.37314,25.36173 1.98799,43.76457 -9.46248,51.44124 -9.20535,6.17151 -24.75914,5.62808 -42.27614,-1.47707 l -7.05073,-2.85987 -0.61209,6.55185 c -0.70255,7.52023 -2.15949,12.00472 -10.01563,30.82844 -3.11413,7.46162 -5.44943,14.11018 -5.18953,14.77458 0.25989,0.66438 6.87514,3.14091 14.70059,5.5034 33.96645,10.25437 81.21859,28.02137 113.73072,42.76322 26.55954,12.04278 32.87155,15.34128 32.05304,16.75007 -1.62819,2.80246 -14.58336,17.42982 -20.35075,22.97755 -6.33425,6.09297 -19.45342,17.27698 -19.88375,16.95075 -0.1288,-0.0976 -2.46185,-0.31595 -5.18456,-0.48512 z M 330.9074,392.64814 c -0.31224,-0.80949 -1.07794,-1.16764 -1.70155,-0.7959 -0.62362,0.37176 -0.52435,-0.0716 0.2206,-0.98539 0.74493,-0.91369 1.12081,-2.5501 0.83524,-3.63646 -0.28556,-1.08636 -0.16734,-1.97519 0.26271,-1.97519 0.43005,0 1.01493,-0.88647 1.29974,-1.96995 0.28481,-1.08348 0.18825,-1.96993 -0.21456,-1.96993 -0.40281,0 -0.73238,-0.62261 -0.73238,-1.38357 0,-0.76095 0.55988,-1.1698 1.24417,-0.90858 0.6843,0.26124 1.73956,-0.44586 2.34503,-1.57136 0.94478,-1.75625 0.81879,-2.04633 -0.88873,-2.04633 -1.20923,0 -2.59197,1.15892 -3.52552,2.95491 -0.8448,1.6252 -1.30175,2.95493 -1.01551,2.95493 0.28626,0 -0.40505,0.92074 -1.53623,2.04609 -1.13118,1.12534 -1.81348,2.67668 -1.51619,3.4474 0.29728,0.77071 0.10896,1.4013 -0.41848,1.4013 -2.23382,0 -0.81722,3.82725 1.7637,4.76501 3.80808,1.38367 4.22317,1.34573 3.57796,-0.32698 z m -8.7163,-2.65478 c 0.65485,-2.05261 0.35701,-8.64586 -0.45877,-10.15552 -0.29274,-0.54172 -0.58832,-1.98797 -0.65687,-3.21389 -0.0685,-1.22591 -0.43888,-2.54154 -0.82297,-2.92366 -0.38408,-0.38211 -0.49672,1.47209 -0.25033,4.12044 0.24641,2.64834 -0.12543,6.7108 -0.82633,9.02765 -0.70087,2.31686 -1.10226,4.38365 -0.89196,4.59288 1.04443,1.03903 3.39129,0.16936 3.90723,-1.4479 z m 26.69691,-12.88437 c -0.0176,-3.73947 -0.62485,-6.01151 -2.17141,-8.12422 -1.18081,-1.61311 -2.39489,-2.68627 -2.69792,-2.38482 -1.16284,1.15686 -1.70567,7.82056 -0.63707,7.82056 0.59162,0 1.53592,1.20436 2.09849,2.67639 0.85587,2.23952 2.72509,5.20337 3.28164,5.20337 0.0828,0 0.13973,-2.33607 0.12627,-5.19128 z m -34.94177,-0.9648 c 1.38517,-1.2189 2.83324,-3.25149 3.21792,-4.5169 0.65498,-2.15456 0.55193,-2.22363 -1.62195,-1.08742 -2.05765,1.07548 -4.17514,3.47661 -4.29081,4.86561 -0.0225,0.27086 -0.39464,1.04652 -0.82686,1.72369 -1.27072,1.99095 0.79707,1.4126 3.5217,-0.98498 z m 22.96571,-3.27151 c 1.71044,-1.70161 2.15861,-4.84888 0.54963,-3.85959 -0.55344,0.34025 -0.78121,0.98089 -0.50618,1.42359 0.27503,0.44272 -0.38601,1.03544 -1.46898,1.31719 -1.08296,0.28175 -1.969,0.997 -1.969,1.58944 0,1.54697 1.58776,1.32685 3.39453,-0.47063 z m 18.79535,0.31661 c -0.55896,-0.98498 -0.43204,-0.98498 0.63463,0 0.73334,0.67717 2.00296,1.23122 2.82137,1.23122 2.20568,0 -5.59818,-7.60477 -8.56372,-8.34522 -1.35557,-0.33848 -2.66575,-0.41538 -2.91151,-0.17092 -0.722,0.7183 2.04179,4.57623 3.27836,4.57623 0.62231,0 1.3645,0.88649 1.64929,1.96997 0.28482,1.08346 1.25414,1.96994 2.15407,1.96994 1.02159,0 1.37376,-0.46251 0.93751,-1.23122 z m -42.48645,-3.16561 c 1.63362,-0.74415 2.36564,-1.389 1.62671,-1.43301 -0.78739,-0.0469 -1.10284,-0.70399 -0.76207,-1.58743 0.76526,-1.98397 -3.87131,-4.26766 -5.45859,-2.68857 -1.2306,1.22426 -0.19754,3.53397 1.19709,2.67647 0.50692,-0.31168 0.92168,-0.14534 0.92168,0.36964 0,0.51498 -1.20199,1.23646 -2.67109,1.60328 -2.09461,0.52301 -2.36171,0.86165 -1.2376,1.56915 1.88321,1.18527 2.82917,1.10976 6.38387,-0.50953 z m 15.75456,0.84621 c 2.62647,-1.00267 0.68379,-2.35923 -3.3786,-2.35923 -3.70948,0 -5.57686,1.01838 -4.26342,2.32506 0.80153,0.7974 5.58671,0.8188 7.64202,0.0342 z m -9.25661,-2.77994 c -0.0563,-0.32169 0.60986,-1.95547 1.4806,-3.63064 1.30929,-2.51885 1.37537,-3.54488 0.38183,-5.9311 -0.66074,-1.58693 -1.4031,-2.68462 -1.6497,-2.43932 -1.04116,1.03583 -1.98119,7.54921 -1.16219,8.05278 1.49152,0.91705 0.98494,2.64722 -0.59812,2.04286 -0.87964,-0.3358 -1.48511,-0.0107 -1.48511,0.79752 0,0.75046 0.55693,1.56234 1.2376,1.80418 1.33554,0.47452 1.95806,0.23304 1.79509,-0.69628 z m 21.71923,-1.66547 c 0,-0.54174 -0.44554,-0.71105 -0.99008,-0.37624 -0.54454,0.33482 -0.99007,1.05199 -0.99007,1.59371 0,0.54174 0.44553,0.71106 0.99007,0.37622 0.54454,-0.3348 0.99008,-1.05197 0.99008,-1.59369 z m 21.78167,0.36623 c 0,-0.6221 -4.02748,-4.16014 -4.85436,-4.26441 -9.36134,-1.18061 -11.7682,0.23808 -5.47576,3.2276 4.2451,2.01682 10.33012,2.62757 10.33012,1.03681 z m -38.35358,-1.01176 c -0.1296,-0.6255 0.39315,-0.89723 1.16166,-0.60384 0.79319,0.3028 1.87327,-0.3513 2.49816,-1.5129 1.30782,-2.43112 1.025,-2.48177 -3.45597,-0.61915 -3.54344,1.47291 -4.93655,4.95411 -1.70084,4.25012 0.95295,-0.20734 1.6266,-0.88873 1.49699,-1.51423 z m 21.3839,-3.17812 c 0.62064,0 1.12845,-0.41668 1.12845,-0.92595 0,-1.46276 -4.93009,-0.70041 -5.93537,0.91781 -0.77637,1.24967 -1.1904,1.17823 -2.88347,-0.49754 -3.44435,-3.40918 -4.52369,-4.06976 -7.67381,-4.69653 -4.29154,-0.85387 -4.63983,0.0215 -1.38662,3.48431 2.37501,2.52814 3.57949,3.0017 7.86073,3.09049 2.78078,0.0577 5.07289,0.54812 5.09356,1.08985 0.0207,0.54173 0.62946,0.20931 1.35285,-0.73873 0.72338,-0.94803 1.82306,-1.72371 2.44368,-1.72371 z m -29.76324,-0.17404 c -0.787,-1.17919 -2.40071,-2.78459 -3.58602,-3.56753 -1.91576,-1.26547 -2.15509,-1.24615 -2.15509,0.17404 0,0.87867 0.89105,2.48407 1.98014,3.56753 1.08909,1.08348 2.70281,1.96995 3.58603,1.96995 1.42754,0 1.44696,-0.2381 0.17494,-2.14399 z m 24.95125,-5.30143 c 0,-1.86409 -0.44554,-3.38926 -0.99008,-3.38926 -0.54454,0 -0.99007,-0.66486 -0.99007,-1.47747 0,-0.8126 -0.52185,-1.47746 -1.15964,-1.47746 -0.63781,0 -1.9744,-0.73354 -2.97023,-1.63012 -1.70411,-1.53422 -1.81059,-1.49717 -1.81059,0.63016 0,1.24313 0.77968,2.89602 1.73263,3.67308 0.95296,0.77707 1.14282,1.11198 0.42194,0.74425 -1.08752,-0.55475 -1.08752,-0.27373 0,1.65067 3.65176,6.46177 5.76604,6.9297 5.76604,1.27615 z m -50.91829,2.02808 c 0.12656,-1.76455 2.70072,-6.40231 3.55355,-6.40231 0.45711,0 0.83114,-0.60946 0.83114,-1.35435 0,-2.24936 -5.9476,-2.87702 -8.2373,-0.86932 -1.90606,1.67132 -1.95558,1.65658 -1.43201,-0.42616 0.43629,-1.73559 -0.0462,-2.36142 -2.46751,-3.20118 -3.93643,-1.36517 -4.69447,-1.31734 -4.69447,0.2962 0,0.737 -1.14505,3.01865 -2.54458,5.07032 -1.99918,2.93078 -2.26444,3.90702 -1.23759,4.55473 1.95394,1.23255 3.78217,1.02246 3.78217,-0.4346 0,-0.70906 0.64795,-2.14958 1.43991,-3.20115 1.32448,-1.75872 1.39345,-1.61592 0.86052,1.78168 -0.71459,4.55571 0.79901,4.85681 4.95177,0.98497 2.45082,-2.28502 2.73207,-2.37547 1.79816,-0.57832 -0.60888,1.17168 -1.66909,2.35685 -2.35599,2.63369 -0.94976,0.38276 -0.8932,0.7586 0.23615,1.56894 1.75924,1.26228 5.41531,0.98181 5.51608,-0.42314 z m 64.67478,0.52231 c 1.84121,-0.52531 4.22849,-1.74422 5.30508,-2.70867 1.92428,-1.72383 1.90101,-1.76244 -1.37401,-2.27975 -3.34195,-0.52784 -5.38441,0.14102 -9.47884,3.10413 -3.71211,2.68643 -0.76817,3.68634 5.54777,1.88429 z m -9.27481,-1.61502 c 1.33749,-0.87188 2.1866,-1.97996 1.88687,-2.46243 -0.29974,-0.48249 -0.0536,-0.87724 0.54694,-0.87724 0.60054,0 0.99979,-0.55404 0.88722,-1.23121 -0.11256,-0.67717 0.13417,-2.4311 0.54831,-3.89763 1.22599,-4.34131 0.27192,-4.88623 -3.27715,-1.87175 -2.72207,2.31202 -3.41234,3.68095 -3.72225,7.38192 -0.20925,2.49893 -0.13775,4.54353 0.15888,4.54353 0.29663,0 1.63364,-0.71333 2.97118,-1.58519 z m -74.80228,-5.28455 c 2.98474,-2.96939 3.66768,-6.94974 1.46705,-8.55059 -4.13493,-3.00794 -10.05679,-0.36984 -11.76388,5.24063 -1.34963,4.43562 6.59747,6.99023 10.29683,3.30996 z m -5.91528,-1.88589 c 0,-0.48171 0.87625,-1.92223 1.94721,-3.20116 2.24659,-2.6828 2.82935,-0.52264 0.63486,2.35331 -1.42388,1.86606 -2.58207,2.24636 -2.58207,0.84785 z m -8.11863,-1.29108 c 2.04256,-2.03204 1.30713,-3.02786 -1.78214,-2.41318 -3.46111,0.68865 -3.72768,-0.20694 -1.02301,-3.4368 1.69424,-2.02319 1.95149,-2.09246 1.98014,-0.53308 0.0417,2.26194 4.324,1.91553 4.76429,-0.3854 0.29309,-1.53158 -3.45749,-3.86924 -6.20783,-3.86924 -1.93663,0 -6.16336,4.01336 -6.89275,6.54478 -1.18011,4.09565 5.95455,7.28314 9.1613,4.09292 z m -13.66304,-3.33249 c 0,-0.85775 -0.5291,-1.38409 -1.17572,-1.16965 -1.83583,0.60878 -2.14031,2.72917 -0.3919,2.72917 0.86219,0 1.56762,-0.70178 1.56762,-1.55952 z m -5.4738,-1.74544 c 1.00937,-0.73426 1.58451,-1.98497 1.2781,-2.77935 -0.31375,-0.81337 0.26478,-1.95497 1.32425,-2.61321 3.59075,-2.23091 1.61703,-4.31301 -5.31491,-5.60675 -3.28255,-0.61263 -3.69458,-0.46604 -3.69458,1.31445 0,1.10221 -1.16925,3.38644 -2.59837,5.07608 -2.94992,3.4877 -3.01869,3.28714 1.6083,4.69119 4.76686,1.44649 5.30373,1.4405 7.39721,-0.0824 z m -4.42697,-3.15547 c 0,-0.84458 0.45279,-1.25718 1.00622,-0.91693 0.55342,0.34029 0.74989,1.0313 0.43661,1.53561 -0.84873,1.36618 -1.44283,1.11144 -1.44283,-0.61868 z m 1.98016,-3.38927 c 0,-0.54175 0.47182,-0.98497 1.0485,-0.98497 0.57669,0 0.77314,0.44322 0.43659,0.98497 -0.33654,0.54174 -0.80837,0.98497 -1.0485,0.98497 -0.24014,0 -0.43659,-0.44323 -0.43659,-0.98497 z m -10.90132,2.47497 c 0.67214,-0.8057 0.96345,-2.13542 0.64733,-2.95493 -0.3396,-0.88043 -0.0232,-1.48999 0.7734,-1.48999 1.50312,0 2.85041,-2.65952 2.02244,-3.99229 -0.48046,-0.77341 -6.77214,-2.88335 -8.63863,-2.89702 -0.41281,-0.003 -1.44987,1.73324 -2.30461,3.85839 -0.8547,2.12513 -2.1877,4.10578 -2.9622,4.40145 -2.43298,0.92882 -1.54466,2.18392 2.3046,3.25615 5.36397,1.49417 6.78601,1.46248 8.15767,-0.18176 z m -4.93991,-2.35871 c 0,-0.54175 0.44553,-1.25892 0.99006,-1.59373 0.54456,-0.3348 0.9901,-0.1655 0.9901,0.37624 0,0.54173 -0.44554,1.2589 -0.9901,1.59371 -0.54453,0.3348 -0.99006,0.16551 -0.99006,-0.37622 z m 1.98016,-4.05616 c 0,-0.54173 0.47181,-0.98495 1.0485,-0.98495 0.57667,0 0.77315,0.44322 0.4366,0.98495 -0.33655,0.54173 -0.80838,0.98498 -1.0485,0.98498 -0.24013,0 -0.4366,-0.44325 -0.4366,-0.98498 z m -11.58842,1.49986 c 5.29254,-5.91662 5.79997,-6.66109 5.00441,-7.34213 -0.77668,-0.66488 -8.24404,-3.02247 -9.57329,-3.02247 -1.01257,0 -4.6447,9.03617 -4.02989,10.02579 0.57082,0.91886 4.03344,2.58996 5.62856,2.71641 0.43315,0.0343 1.76975,-1.03557 2.97021,-2.3776 z m -4.23079,-0.81003 c -0.0298,-1.06464 2.87936,-6.59966 3.46867,-6.59966 0.25829,0 0.45969,0.55404 0.4476,1.23122 -0.0241,1.35285 -3.88075,6.63943 -3.91627,5.36844 z m -8.41578,-3.60952 c -0.3192,-0.51379 -1.28622,-0.66469 -2.14894,-0.33534 -1.35737,0.5182 -1.40415,0.28029 -0.34744,-1.76671 0.67162,-1.30106 2.1555,-3.10393 3.29751,-4.00642 2.0581,-1.62641 2.04619,-1.64895 -1.35347,-2.56035 -3.79957,-1.01864 -3.97838,-0.98076 -4.29433,0.90981 -0.35514,2.12501 -2.79506,6.15161 -4.47333,7.38228 -1.29006,0.94601 -0.72502,1.3775 3.37946,2.58064 4.17182,1.2229 5.05082,1.23633 5.72471,0.0876 0.43787,-0.74648 0.53501,-1.77761 0.21583,-2.2914 z m -12.00855,-2.26278 c 1.4068,-2.21877 -0.0562,-3.37801 -2.41448,-1.91294 -2.65174,1.6475 -2.64441,-0.70407 0.012,-3.87641 1.53038,-1.82751 1.95426,-1.97886 1.98015,-0.70698 0.0484,2.37866 2.80613,3.05082 3.9318,0.95833 1.3568,-2.5221 -0.53836,-4.0541 -5.01507,-4.0541 -2.80759,0 -4.18134,0.62085 -5.74245,2.59525 -3.31903,4.19772 -2.43167,7.33817 2.40334,8.50555 2.7277,0.65858 3.65319,0.37037 4.84462,-1.5087 z m -14.56586,-3.79114 c -0.40011,-1.52217 -0.0109,-2.21816 1.45335,-2.59909 1.51113,-0.39315 1.67893,-0.71751 0.68675,-1.32757 -1.0457,-0.64294 -1.06274,-1.05629 -0.0837,-2.03029 0.93323,-0.92843 1.2293,-0.93831 1.2293,-0.041 0,1.47488 2.61998,1.55767 3.51858,0.11118 0.36589,-0.58895 0.25512,-1.4788 -0.24613,-1.97745 -1.27151,-1.26495 -8.64917,-1.60096 -8.76458,-0.39917 -0.17442,1.81615 -2.73706,6.40232 -3.57748,6.40232 -1.88522,0 -0.65815,2.85106 1.39651,3.24477 4.56898,0.87548 4.94967,0.75542 4.38738,-1.38369 z m -8.93113,-3.6605 c 0.19071,-1.26058 1.01262,-2.95436 1.82644,-3.76402 2.68163,-2.66777 1.49003,-4.19618 -4.65288,-5.96804 -3.98228,-1.14866 -4.75823,-0.85995 -4.75823,1.77037 0,0.9516 -1.15267,3.09301 -2.56149,4.75864 -2.64423,3.12631 -2.43632,3.55059 2.06645,4.21695 1.4129,0.20909 2.07078,-0.34183 2.29654,-1.92315 0.17398,-1.2189 0.73092,-2.21619 1.23759,-2.21619 1.15983,0 1.153,1.06529 -0.0188,2.90789 -1.2386,1.94783 -0.28667,3.17738 2.1771,2.81203 1.25663,-0.18634 2.17364,-1.18302 2.38717,-2.59448 z m -3.12933,-6.08035 c 0.33655,-0.54174 0.80838,-0.98498 1.04852,-0.98498 0.24012,0 0.4366,0.44324 0.4366,0.98498 0,0.54173 -0.47183,0.98497 -1.04851,0.98497 -0.57668,0 -0.77316,-0.44324 -0.43661,-0.98497 z m -10.26461,0.49248 c 1.12451,-1.89608 2.44607,-3.44739 2.93684,-3.44739 0.49075,0 0.89227,-0.66486 0.89227,-1.47746 0,-0.81262 -0.33415,-1.48226 -0.74254,-1.48813 -0.40842,-0.006 -2.7884,-0.62842 -5.28885,-1.38347 l -4.54628,-1.37279 -2.05586,4.84097 c -1.82112,4.28828 -1.88744,5.00851 -0.58091,6.30832 0.81125,0.80705 2.79477,1.46736 4.40786,1.46736 2.3024,0 3.37244,-0.74111 4.97747,-3.44741 z m -6.04963,-0.24625 c 0.029,-0.97214 3.88769,-5.87027 3.91627,-4.9712 0.0445,1.39896 -2.30141,5.70994 -3.10714,5.70994 -0.45713,0 -0.82124,-0.33243 -0.80913,-0.73874 z m -7.58949,-2.40475 c 0.80286,-1.27546 0.60727,-2.15137 -0.83428,-3.73606 -1.61414,-1.77441 -1.64356,-1.97855 -0.2059,-1.42973 0.9224,0.35215 2.39559,0.36598 3.27373,0.0307 1.3172,-0.50286 1.37552,-0.87458 0.33313,-2.12409 -0.85055,-1.01958 -2.58578,-1.41815 -5.3094,-1.21957 -3.37821,0.24632 -4.09987,0.67394 -4.37282,2.59111 -0.19514,1.37072 0.40337,2.8467 1.48512,3.66231 2.09579,1.5802 1.04752,1.88188 -1.61439,0.46461 -2.63593,-1.40345 -4.8698,1.33911 -2.32143,2.85007 2.57221,1.52511 8.33347,0.86901 9.56624,-1.08939 z m 91.05477,-31.2027 c 3.60252,-13.32485 6.52352,-30.091 5.43168,-31.17721 -0.29962,-0.29807 -2.94173,0.41343 -5.87137,1.58105 -10.6634,4.25006 -28.07469,9.76889 -30.81971,9.76889 -2.74984,0 -5.35468,-2.06757 -8.69708,-6.90322 l -1.51764,-2.1957 -10.36328,1.58872 c -5.69978,0.87377 -18.13952,2.28205 -27.64383,3.12948 -9.50432,0.84744 -20.9532,2.17796 -25.44195,2.95669 -8.79367,1.52559 -17.78497,4.60338 -17.48991,5.98693 0.10024,0.46995 12.57518,3.60771 27.72213,6.97284 27.13348,6.02811 74.78057,17.68303 83.47924,20.41979 7.58641,2.38684 7.16378,2.84402 11.21172,-12.12826 z m -24.87234,6.71896 c -2.6529,-1.0591 -5.28746,-2.9659 -21.98214,-15.90987 -16.03171,-12.42996 -18.55217,-14.56543 -17.19824,-14.57135 0.615,-0.003 5.30162,3.43018 10.41474,7.62862 5.1131,4.19845 13.96614,10.92572 19.67342,14.94949 13.45559,9.48653 13.79288,9.77969 9.09222,7.90311 z m -58.35275,-13.85481 c -1.82612,-0.5248 -5.9455,-3.66226 -9.58258,-7.29845 -6.47005,-6.46846 -6.47048,-6.47092 -1.19702,-6.78836 0.74995,-0.0451 4.97766,3.35301 9.39489,7.55146 7.95807,7.56391 8.15224,8.48023 1.38471,6.53535 z m -34.41985,-7.7233 -2.97022,-0.70865 2.8065,-0.77998 c 2.06346,-0.57348 3.23368,-0.355 4.41999,0.82518 1.82201,1.81261 1.05897,1.93156 -4.25627,0.66345 z m 282.56194,89.6883 c -21.39519,-10.56809 -51.16932,-23.18131 -76.66964,-32.47959 -5.53619,-2.01868 -12.85924,-6.012 -11.05234,-6.02693 0.43174,-0.004 8.67413,2.60121 18.31641,5.7884 9.64228,3.1872 21.37658,6.9528 26.07622,8.36801 4.69965,1.41521 14.85095,5.45607 22.55843,8.97968 7.70748,3.52363 14.18846,6.40656 14.40217,6.40656 0.21369,0 3.65119,1.49528 7.63889,3.32282 3.98771,1.82755 9.58942,4.31993 12.44827,5.53864 2.85883,1.21871 5.1979,2.36202 5.1979,2.54069 0,0.9691 -2.38605,5.33117 -2.88164,5.26807 -0.32099,-0.0409 -7.53661,-3.50875 -16.03467,-7.70635 z m 59.5876,-100.15586 c 0.0476,-1.14744 0.28212,-1.38083 0.59816,-0.59508 0.28602,0.71103 0.25085,1.56057 -0.0781,1.88786 -0.32899,0.32729 -0.563,-0.25445 -0.52,-1.29278 z M 102.82961,234.42172 c -1.90588,-2.73093 -3.936742,-5.48039 -4.512999,-6.10993 -0.576259,-0.62954 -3.122066,-4.24728 -5.657354,-8.03941 -2.535291,-3.79216 -6.026622,-8.84491 -7.758514,-11.22838 -3.876,-5.33421 -16.6663,-30.62067 -20.227664,-39.99018 -5.372504,-14.13435 -6.396891,-17.65136 -6.396891,-21.96232 0,-5.11122 2.68589,-14.85742 7.383955,-26.7938 1.812387,-4.60474 3.576118,-9.21137 3.919406,-10.23693 1.157024,-3.4566 1.516009,-1.02335 0.64624,4.38034 -0.474854,2.95025 -0.712654,11.00948 -0.528421,17.90936 0.952279,35.66552 13.472847,67.628 40.130452,102.44487 l 2.06979,2.70331 -2.6183,0.99033 c -1.44005,0.54469 -2.70066,0.96958 -2.80135,0.94421 -0.10068,-0.0254 -1.74244,-2.28053 -3.64835,-5.01147 z m 18.07678,-16.85802 c -12.1926,-15.29321 -14.8157,-19.35003 -19.86996,-30.73067 -8.01304,-18.0429 -12.608007,-33.10896 -15.485974,-50.77578 -3.326007,-20.41711 0.0095,-14.36944 7.365214,13.35266 1.589186,5.98964 3.764452,12.921 4.83389,15.40305 1.069443,2.48204 3.3729,8.66239 5.11878,13.73406 5.31572,15.44186 11.79353,27.04379 23.43433,41.97159 3.83638,4.91966 5.76485,8.12603 4.8874,8.12603 -0.79714,0 -5.4248,-4.98642 -10.28368,-11.08094 z m 31.29556,-0.54144 c -0.19995,-0.54327 -3.57464,-4.36268 -7.4993,-8.4876 -4.5701,-4.80326 -7.49732,-8.8025 -8.1413,-11.12282 -0.55305,-1.99261 -0.90623,-3.7086 -0.78485,-3.81327 0.48135,-0.41509 23.77777,22.28095 23.32884,22.72758 -1.07253,1.06699 -6.56312,1.62064 -6.90339,0.69611 z m -21.16942,-91.82714 c -1.57921,-3.03816 -1.16891,-9.82227 0.59407,-9.82227 1.70831,0 3.58891,5.47032 3.13218,9.11099 -0.56095,4.4716 -1.66235,4.68183 -3.72625,0.71128 z M 50.435532,98.382079 c 0.06722,-3.927575 -0.0346,-7.641719 -0.22638,-8.253632 -0.463991,-1.480797 3.83981,-7.268543 5.373963,-7.226926 0.664372,0.01804 2.271124,0.913655 3.570559,1.990291 2.203968,1.826068 2.253824,2.077118 0.742564,3.738426 -0.891026,0.979528 -1.62005,2.153908 -1.62005,2.609781 0,1.681124 -6.262785,14.283101 -7.098251,14.283101 -0.475547,0 -0.809626,-3.21348 -0.742405,-7.141041 z m 34.384808,3.693631 c -0.222509,-1.89606 -0.04855,-3.44739 0.386714,-3.44739 0.435193,0 0.791263,1.55133 0.791263,3.44739 0,1.89608 -0.174019,3.44741 -0.386713,3.44741 -0.212693,0 -0.568765,-1.55133 -0.791264,-3.44741 z m 61.23639,-23.582857 c -0.46531,-1.206313 2.91124,-7.914438 7.21735,-14.338571 1.55862,-2.325225 -0.32556,2.570619 -3.70163,9.618421 -1.87048,3.904778 -3.16161,5.638203 -3.51572,4.72015 z m 245.28608,-3.75012 -1.88608,-2.216187 2.22767,1.876361 c 2.09345,1.763313 2.67839,2.556014 1.88608,2.556014 -0.18788,0 -1.19033,-0.997285 -2.22767,-2.216188 z M 67.835324,71.180371 c -1.558953,-0.610384 -0.872695,-1.603094 4.681463,-6.771952 8.496798,-7.907363 17.206237,-15.093428 23.101573,-19.060878 4.252451,-2.861807 3.860687,-2.29062 -3.83637,5.593543 -4.714833,4.829454 -9.795006,10.254809 -11.289266,12.056347 -4.411501,5.318687 -8.425706,9.041521 -9.669227,8.9674 -0.638785,-0.03809 -1.98346,-0.391083 -2.988173,-0.78446 z M 104.80978,58.441445 c 0,-1.035865 2.15039,-3.151912 3.20308,-3.151912 0.45479,0 0.35001,0.886475 -0.23284,1.969946 -1.04648,1.94526 -2.97024,2.710797 -2.97024,1.181966 z M 205.61193,4.3831082 c 0.7147,-0.2845285 1.56864,-0.2495361 1.89765,0.077768 0.32898,0.3272977 -0.25579,0.5600946 -1.29949,0.5173264 -1.15338,-0.047263 -1.38797,-0.2806593 -0.59816,-0.5950881 z m 41.5832,0 c 0.71471,-0.2845285 1.56865,-0.2495361 1.89764,0.077768 0.329,0.3272977 -0.25576,0.5600946 -1.29947,0.5173264 -1.15338,-0.047263 -1.38799,-0.2806593 -0.59817,-0.5950881 z M 222.4075,3.3485119 c 2.3287,-0.2080707 5.89299,-0.2051446 7.92062,0.00647 2.02764,0.2116488 0.12235,0.3818878 -4.23399,0.3783108 -4.35633,-0.00353 -6.01532,-0.1767443 -3.68663,-0.384815 z"
         id="path7086" /><text
         xml:space="preserve"
         style="font-style:italic;font-variant:normal;font-weight:bold;font-stretch:normal;font-size:18.6667px;line-height:1.25;font-family:sans-serif;-inkscape-font-specification:'sans-serif, Bold Italic';font-variant-ligatures:normal;font-variant-caps:normal;font-variant-numeric:normal;font-variant-east-asian:normal;white-space:pre;inline-size:49.2406;fill:#ffffff;fill-opacity:1;stroke:none"
         x="85.624634"
         y="298.60269"
         id="text149228"><tspan
           x="85.624634"
           y="298.60269"
           id="tspan429">Dao.</tspan></text></g></g></svg>
